<svg width="206" height="25" viewBox="0 0 206 25" fill="none" xmlns="http://www.w3.org/2000/svg">
<path d="M21.6614 20.224C21.576 20.5013 21.5334 20.7787 21.5334 21.056C21.5334 21.2907 21.5654 21.4933 21.6294 21.664C21.6934 21.8133 21.7574 21.9413 21.8214 22.048C21.9067 22.1333 21.96 22.1973 21.9814 22.24C22.1947 22.4533 22.3014 22.6667 22.3014 22.88C22.3014 22.9227 22.28 23.0293 22.2374 23.2C22.152 23.4987 21.96 23.712 21.6614 23.84C21.384 23.9467 20.9467 24 20.3494 24H12.7654C12.3174 24 11.9654 23.9253 11.7094 23.776C11.4747 23.6267 11.3574 23.424 11.3574 23.168C11.3574 23.04 11.3894 22.9013 11.4534 22.752C11.5174 22.5813 11.6027 22.4533 11.7094 22.368C11.8374 22.2613 12.008 22.144 12.2214 22.016C12.5627 21.824 12.84 21.6107 13.0534 21.376C13.2667 21.1413 13.448 20.7573 13.5974 20.224L14.4294 17.472H9.43738L8.57338 19.296C8.21071 20.0853 8.02938 20.704 8.02938 21.152C8.02938 21.408 8.07204 21.6213 8.15738 21.792C8.24271 21.9413 8.37071 22.1013 8.54138 22.272C8.69071 22.4427 8.78671 22.592 8.82938 22.72C8.89338 22.8267 8.90404 22.976 8.86138 23.168C8.77604 23.488 8.59471 23.712 8.31738 23.84C8.06138 23.9467 7.64538 24 7.06938 24H2.30138C1.81071 24 1.43737 23.9147 1.18137 23.744C0.925375 23.552 0.797375 23.3067 0.797375 23.008C0.797375 22.6667 0.925375 22.4 1.18137 22.208C1.41604 21.9947 1.77871 21.7707 2.26938 21.536C2.90938 21.216 3.42138 20.9067 3.80538 20.608C4.18938 20.288 4.52004 19.8507 4.79738 19.296L10.4934 7.488C11.368 5.65333 12.392 4.33066 13.5654 3.52C14.76 2.688 16.328 2.272 18.2694 2.272C20.4454 2.272 22.1307 2.72 23.3254 3.616C24.52 4.49067 25.1174 5.71733 25.1174 7.296C25.1174 7.95733 25.0107 8.64 24.7974 9.344L21.6614 20.224ZM15.3894 14.272L17.0854 8.64C17.1707 8.384 17.2134 8.11733 17.2134 7.84C17.2134 7.43467 17.096 7.136 16.8614 6.944C16.648 6.73067 16.3387 6.624 15.9334 6.624C15.4214 6.624 14.984 6.77333 14.6214 7.072C14.2587 7.37067 13.896 7.904 13.5334 8.672L10.9094 14.272H15.3894ZM43.4611 19.584C43.4185 19.7547 43.3971 19.8827 43.3971 19.968C43.3971 20.1173 43.4291 20.2347 43.4931 20.32C43.5785 20.4053 43.6851 20.448 43.8131 20.448C44.0691 20.448 44.2825 20.3413 44.4531 20.128C44.6451 19.8933 44.7731 19.776 44.8371 19.776C44.9438 19.776 45.0291 19.8507 45.0931 20C45.1785 20.128 45.2211 20.288 45.2211 20.48C45.2425 21.0773 45.0291 21.6747 44.5811 22.272C44.1331 22.848 43.5038 23.328 42.6931 23.712C41.8825 24.096 40.9758 24.288 39.9731 24.288C38.7145 24.288 37.7118 24.032 36.9651 23.52C36.2185 23.008 35.7385 22.336 35.5251 21.504C34.7571 22.3573 33.9038 23.008 32.9651 23.456C32.0478 23.8827 31.1091 24.096 30.1491 24.096C28.6558 24.096 27.3971 23.7333 26.3731 23.008C25.3705 22.2613 24.8691 21.2267 24.8691 19.904C24.8691 19.3067 24.9758 18.688 25.1891 18.048L27.2371 11.36C27.3011 11.168 27.3331 11.008 27.3331 10.88C27.3331 10.6453 27.2798 10.464 27.1731 10.336C27.0665 10.1867 26.9065 10.0373 26.6931 9.888C26.4798 9.71733 26.3305 9.568 26.2451 9.44C26.1598 9.312 26.1491 9.14133 26.2131 8.928C26.3411 8.43733 27.0131 8.01067 28.2291 7.648C29.4451 7.264 30.7145 7.072 32.0371 7.072C33.2745 7.072 34.1811 7.30667 34.7571 7.776C35.3331 8.24533 35.6211 8.88533 35.6211 9.696C35.6211 10.1867 35.5465 10.656 35.3971 11.104L33.3811 17.76C33.2958 17.9947 33.2531 18.2187 33.2531 18.432C33.2531 18.7307 33.3385 18.9547 33.5091 19.104C33.6798 19.2533 33.9038 19.328 34.1811 19.328C34.5865 19.328 34.9171 19.2107 35.1731 18.976C35.4291 18.7413 35.6851 18.3467 35.9411 17.792L37.8931 11.36C37.9571 11.168 37.9891 11.008 37.9891 10.88C37.9891 10.6453 37.9358 10.464 37.8291 10.336C37.7225 10.1867 37.5731 10.0373 37.3811 9.888C37.1678 9.71733 37.0185 9.568 36.9331 9.44C36.8478 9.312 36.8371 9.14133 36.9011 8.928C37.0078 8.43733 37.6691 8.01067 38.8851 7.648C40.1011 7.264 41.3705 7.072 42.6931 7.072C43.9305 7.072 44.8371 7.30667 45.4131 7.776C46.0105 8.24533 46.3091 8.87467 46.3091 9.664C46.3091 10.0693 46.2238 10.5493 46.0531 11.104L43.4611 19.584ZM60.6946 7.488C61.1 7.488 61.4093 7.57333 61.6226 7.744C61.8573 7.91467 61.9746 8.14933 61.9746 8.448C61.9746 8.53333 61.9533 8.68267 61.9106 8.896C61.6333 9.83467 60.9933 10.304 59.9906 10.304H58.1346L55.7346 18.208C55.628 18.528 55.5746 18.8587 55.5746 19.2C55.5746 19.584 55.6813 19.8507 55.8946 20C56.108 20.1493 56.4066 20.224 56.7906 20.224C57.132 20.224 57.5586 20.1813 58.0706 20.096C58.3266 20.032 58.5506 20 58.7426 20C58.892 20 58.9986 20.0533 59.0626 20.16C59.148 20.2453 59.1906 20.3627 59.1906 20.512C59.212 20.9387 58.892 21.4613 58.2306 22.08C57.5906 22.6773 56.716 23.2 55.6066 23.648C54.4973 24.0747 53.2706 24.288 51.9266 24.288C50.476 24.288 49.3133 23.9573 48.4386 23.296C47.564 22.6347 47.1266 21.728 47.1266 20.576C47.1266 20.0427 47.212 19.5307 47.3826 19.04L49.4306 12.704C49.5373 12.3413 49.5906 12.0533 49.5906 11.84C49.5906 11.4133 49.484 11.0507 49.2706 10.752C49.0786 10.4533 48.8013 10.144 48.4386 9.824C48.1186 9.52533 47.8946 9.28 47.7666 9.088C47.6386 8.87467 47.6066 8.62933 47.6706 8.352C47.756 8.07467 47.9373 7.86133 48.2146 7.712C48.492 7.56267 48.9293 7.488 49.5266 7.488H51.3186L53.3346 5.472C54.0386 4.768 54.6786 4.27733 55.2546 4C55.852 3.72267 56.62 3.584 57.5586 3.584C58.9026 3.584 59.5746 4.096 59.5746 5.12C59.5746 5.44 59.532 5.73867 59.4466 6.016L58.9986 7.488H60.6946ZM72.5246 7.072C75.426 7.072 77.5593 7.65867 78.9246 8.832C80.3113 10.0053 81.0046 11.5413 81.0046 13.44C81.0046 14.08 80.9193 14.7947 80.7486 15.584C80.3433 17.3333 79.586 18.8693 78.4766 20.192C77.3673 21.4933 76.002 22.5067 74.3806 23.232C72.7806 23.936 71.042 24.288 69.1646 24.288C66.1993 24.288 64.002 23.7013 62.5726 22.528C61.1646 21.3333 60.4606 19.7547 60.4606 17.792C60.4606 17.1307 60.546 16.3947 60.7166 15.584C61.122 13.92 61.89 12.448 63.0206 11.168C64.1726 9.86667 65.57 8.864 67.2126 8.16C68.8766 7.43467 70.6473 7.072 72.5246 7.072ZM72.4286 9.92C71.9806 9.92 71.5006 10.3253 70.9886 11.136C70.498 11.9253 69.9113 13.4293 69.2286 15.648C68.546 17.8667 68.2046 19.424 68.2046 20.32C68.2046 20.7893 68.2793 21.1093 68.4286 21.28C68.578 21.4293 68.7806 21.504 69.0366 21.504C69.4846 21.5467 69.9433 21.1627 70.4126 20.352C70.9033 19.5413 71.5113 17.9627 72.2366 15.616C72.898 13.5467 73.2286 12.0427 73.2286 11.104C73.2286 10.656 73.154 10.3467 73.0046 10.176C72.8766 10.0053 72.6846 9.92 72.4286 9.92ZM92.2766 24.192C90.4846 24.192 88.874 23.8613 87.4446 23.2C86.0153 22.5387 84.874 21.568 84.0206 20.288C83.1886 18.9867 82.7726 17.4187 82.7726 15.584C82.7726 14.304 82.9966 12.9173 83.4446 11.424C84.426 8.224 85.9086 5.92 87.8926 4.512C89.8766 3.08267 91.9993 2.368 94.2606 2.368C95.4766 2.368 96.554 2.54933 97.4926 2.912C98.4313 3.27467 99.2953 3.79733 100.085 4.48L100.949 3.808C101.525 3.36 102.005 3.05067 102.389 2.88C102.794 2.70933 103.242 2.624 103.733 2.624C104.266 2.624 104.693 2.74133 105.013 2.976C105.333 3.21067 105.493 3.552 105.493 4C105.493 4.23467 105.45 4.46933 105.365 4.704L103.573 9.696C103.381 10.272 103.146 10.6773 102.869 10.912C102.613 11.1467 102.218 11.264 101.685 11.264C101.13 11.264 100.671 11.072 100.309 10.688C99.9673 10.2827 99.5726 9.6 99.1246 8.64C98.6126 7.63733 98.1966 6.976 97.8766 6.656C97.5566 6.336 97.0873 6.176 96.4686 6.176C95.594 6.176 94.7513 6.72 93.9406 7.808C93.13 8.87467 92.394 10.4853 91.7326 12.64C91.178 14.4533 90.9006 15.968 90.9006 17.184C90.9006 18.2507 91.1033 19.0507 91.5086 19.584C91.914 20.096 92.458 20.352 93.1406 20.352C94.1433 20.352 94.9646 20.128 95.6046 19.68C96.266 19.232 96.938 18.624 97.6206 17.856C98.0473 17.3867 98.3886 17.0453 98.6446 16.832C98.922 16.5973 99.21 16.48 99.5086 16.48C99.8926 16.48 100.298 16.672 100.725 17.056C101.151 17.44 101.354 17.824 101.333 18.208C101.354 18.6773 100.97 19.4027 100.181 20.384C99.4126 21.3653 98.3353 22.2507 96.9486 23.04C95.5833 23.808 94.026 24.192 92.2766 24.192ZM122.913 19.584C122.87 19.6693 122.849 19.7973 122.849 19.968C122.849 20.1173 122.881 20.2347 122.945 20.32C123.03 20.4053 123.137 20.448 123.265 20.448C123.521 20.448 123.734 20.3413 123.905 20.128C124.097 19.8933 124.225 19.776 124.289 19.776C124.396 19.776 124.481 19.8507 124.545 20C124.609 20.128 124.641 20.288 124.641 20.48C124.662 21.0987 124.46 21.7067 124.033 22.304C123.606 22.88 122.977 23.36 122.145 23.744C121.334 24.1067 120.353 24.288 119.201 24.288C117.793 24.288 116.673 23.968 115.841 23.328C115.009 22.6667 114.582 21.792 114.561 20.704C114.561 19.9147 114.753 19.0293 115.137 18.048L116.897 13.44C117.004 13.1627 117.057 12.9387 117.057 12.768C117.057 12.4907 116.961 12.2773 116.769 12.128C116.598 11.9573 116.385 11.872 116.129 11.872C115.724 11.872 115.308 12.064 114.881 12.448C114.476 12.8107 114.145 13.408 113.889 14.24V14.176L111.873 20.672C111.809 20.928 111.777 21.152 111.777 21.344C111.777 21.6213 111.83 21.8453 111.937 22.016C112.044 22.1653 112.193 22.3147 112.385 22.464C112.534 22.6133 112.641 22.7413 112.705 22.848C112.769 22.9333 112.78 23.0507 112.737 23.2C112.63 23.4773 112.417 23.68 112.097 23.808C111.777 23.936 111.286 24 110.625 24H103.329C102.774 24 102.369 23.9147 102.113 23.744C101.857 23.552 101.772 23.3067 101.857 23.008C101.942 22.752 102.166 22.528 102.529 22.336C102.849 22.1653 103.116 21.9627 103.329 21.728C103.542 21.4933 103.724 21.12 103.873 20.608L108.737 4.64C108.801 4.448 108.833 4.288 108.833 4.16C108.833 3.92533 108.769 3.73333 108.641 3.584C108.534 3.43467 108.385 3.28533 108.193 3.136C107.98 2.96533 107.82 2.816 107.713 2.688C107.628 2.56 107.617 2.38933 107.681 2.176C107.809 1.68533 108.481 1.25867 109.697 0.895998C110.913 0.533332 112.182 0.351999 113.505 0.351999C114.742 0.351999 115.649 0.586666 116.225 1.056C116.822 1.52533 117.121 2.16533 117.121 2.976C117.121 3.44533 117.046 3.904 116.897 4.352L115.169 9.984C116.001 8.896 116.876 8.13867 117.793 7.712C118.732 7.28533 119.745 7.072 120.833 7.072C122.134 7.072 123.18 7.46667 123.969 8.256C124.78 9.04533 125.185 10.0693 125.185 11.328C125.185 11.9893 125.078 12.64 124.865 13.28L122.913 19.584ZM138.4 7.072C141.301 7.072 143.434 7.65867 144.8 8.832C146.186 10.0053 146.88 11.5413 146.88 13.44C146.88 14.08 146.794 14.7947 146.624 15.584C146.218 17.3333 145.461 18.8693 144.352 20.192C143.242 21.4933 141.877 22.5067 140.256 23.232C138.656 23.936 136.917 24.288 135.04 24.288C132.074 24.288 129.877 23.7013 128.448 22.528C127.04 21.3333 126.336 19.7547 126.336 17.792C126.336 17.1307 126.421 16.3947 126.592 15.584C126.997 13.92 127.765 12.448 128.896 11.168C130.048 9.86667 131.445 8.864 133.088 8.16C134.752 7.43467 136.522 7.072 138.4 7.072ZM138.304 9.92C137.856 9.92 137.376 10.3253 136.864 11.136C136.373 11.9253 135.786 13.4293 135.104 15.648C134.421 17.8667 134.08 19.424 134.08 20.32C134.08 20.7893 134.154 21.1093 134.304 21.28C134.453 21.4293 134.656 21.504 134.912 21.504C135.36 21.5467 135.818 21.1627 136.288 20.352C136.778 19.5413 137.386 17.9627 138.112 15.616C138.773 13.5467 139.104 12.0427 139.104 11.104C139.104 10.656 139.029 10.3467 138.88 10.176C138.752 10.0053 138.56 9.92 138.304 9.92ZM159.4 7.072C162.301 7.072 164.434 7.65867 165.8 8.832C167.186 10.0053 167.88 11.5413 167.88 13.44C167.88 14.08 167.794 14.7947 167.624 15.584C167.218 17.3333 166.461 18.8693 165.352 20.192C164.242 21.4933 162.877 22.5067 161.256 23.232C159.656 23.936 157.917 24.288 156.04 24.288C153.074 24.288 150.877 23.7013 149.448 22.528C148.04 21.3333 147.336 19.7547 147.336 17.792C147.336 17.1307 147.421 16.3947 147.592 15.584C147.997 13.92 148.765 12.448 149.896 11.168C151.048 9.86667 152.445 8.864 154.088 8.16C155.752 7.43467 157.522 7.072 159.4 7.072ZM159.304 9.92C158.856 9.92 158.376 10.3253 157.864 11.136C157.373 11.9253 156.786 13.4293 156.104 15.648C155.421 17.8667 155.08 19.424 155.08 20.32C155.08 20.7893 155.154 21.1093 155.304 21.28C155.453 21.4293 155.656 21.504 155.912 21.504C156.36 21.5467 156.818 21.1627 157.288 20.352C157.778 19.5413 158.386 17.9627 159.112 15.616C159.773 13.5467 160.104 12.0427 160.104 11.104C160.104 10.656 160.029 10.3467 159.88 10.176C159.752 10.0053 159.56 9.92 159.304 9.92ZM178.544 6.784C180.314 6.784 181.84 6.944 183.12 7.264C184.421 7.584 185.413 8.032 186.096 8.608C186.8 9.184 187.152 9.83467 187.152 10.56C187.152 11.3067 186.853 11.9147 186.256 12.384C185.68 12.8533 184.869 13.088 183.824 13.088C182.757 13.088 181.85 12.8213 181.104 12.288C180.378 11.7547 180.016 11.0827 180.016 10.272C180.016 9.99467 180.058 9.728 180.144 9.472C179.76 9.36533 179.418 9.312 179.12 9.312C178.586 9.312 178.138 9.44 177.776 9.696C177.434 9.952 177.274 10.3147 177.296 10.784C177.296 11.3387 177.573 11.808 178.128 12.192C178.682 12.576 179.578 13.056 180.816 13.632C181.882 14.1013 182.757 14.5387 183.44 14.944C184.144 15.328 184.73 15.8187 185.2 16.416C185.69 17.0133 185.936 17.7173 185.936 18.528C185.936 18.6987 185.893 19.0187 185.808 19.488C185.466 20.9173 184.517 22.048 182.96 22.88C181.402 23.712 179.354 24.128 176.816 24.128C173.957 24.128 171.685 23.744 170 22.976C168.336 22.208 167.504 21.152 167.504 19.808C167.504 18.8907 167.781 18.1973 168.336 17.728C168.89 17.2587 169.626 17.024 170.544 17.024C171.61 17.024 172.517 17.3547 173.264 18.016C174.032 18.6773 174.416 19.52 174.416 20.544C174.416 20.8213 174.384 21.1093 174.32 21.408C174.832 21.536 175.322 21.6 175.792 21.6C176.346 21.6 176.805 21.4507 177.168 21.152C177.53 20.8533 177.712 20.4373 177.712 19.904C177.69 19.4133 177.445 18.9973 176.976 18.656C176.506 18.2933 175.76 17.8667 174.736 17.376C173.776 16.928 172.986 16.512 172.368 16.128C171.749 15.7227 171.216 15.2213 170.768 14.624C170.341 14.0267 170.128 13.3227 170.128 12.512C170.128 10.7627 170.853 9.376 172.304 8.352C173.776 7.30667 175.856 6.784 178.544 6.784ZM197.832 6.912C200.542 6.912 202.504 7.34933 203.72 8.224C204.936 9.07733 205.544 10.176 205.544 11.52C205.544 11.9253 205.502 12.2987 205.416 12.64C205.096 14.048 204.2 15.0613 202.728 15.68C201.278 16.2773 199.56 16.576 197.576 16.576C196.574 16.576 195.635 16.512 194.76 16.384C194.739 17.4933 195.038 18.272 195.656 18.72C196.275 19.168 197.139 19.392 198.248 19.392C198.76 19.392 199.251 19.3387 199.72 19.232C200.19 19.104 200.787 18.9227 201.512 18.688C202.11 18.4747 202.515 18.368 202.728 18.368C202.963 18.368 203.08 18.5067 203.08 18.784C203.102 19.5307 202.824 20.32 202.248 21.152C201.672 21.9627 200.819 22.656 199.688 23.232C198.558 23.808 197.192 24.096 195.592 24.096C193.224 24.096 191.283 23.4987 189.768 22.304C188.254 21.1093 187.496 19.3707 187.496 17.088C187.496 16.448 187.582 15.7013 187.752 14.848C188.286 12.224 189.448 10.2507 191.24 8.928C193.054 7.584 195.251 6.912 197.832 6.912ZM194.984 14.464C195.07 14.4853 195.187 14.496 195.336 14.496C196.232 14.496 196.915 14.08 197.384 13.248C197.854 12.416 198.078 11.488 198.056 10.464C198.035 9.86667 197.864 9.568 197.544 9.568C197.31 9.568 197.032 9.76 196.712 10.144C196.392 10.5067 196.072 11.0613 195.752 11.808C195.454 12.5547 195.198 13.44 194.984 14.464Z" fill="white"/>
</svg>
