<svg width="218" height="26" viewBox="0 0 218 26" fill="none" xmlns="http://www.w3.org/2000/svg">
<path d="M13.1513 1.32L23.9673 25H21.2153L12.5433 7.176L4.41525 25H0.28725L11.1353 1.32H13.1513ZM19.8393 20.136H5.47125L6.07925 17.576H19.2313L19.8393 20.136ZM42.6985 6.888V16.712C42.6985 18.1413 42.4852 19.4107 42.0585 20.52C41.6318 21.608 41.0345 22.5253 40.2665 23.272C39.5198 23.9973 38.6132 24.552 37.5465 24.936C36.5012 25.32 35.3385 25.512 34.0585 25.512C32.7785 25.512 31.6052 25.32 30.5385 24.936C29.4718 24.552 28.5545 23.9973 27.7865 23.272C27.0398 22.5253 26.4532 21.608 26.0265 20.52C25.5998 19.4107 25.3865 18.1413 25.3865 16.712V6.888H27.8505V15.816C27.8505 16.456 27.9038 17.0213 28.0105 17.512C28.1172 17.9813 28.2665 18.408 28.4585 18.792C28.6718 19.176 28.9385 19.5493 29.2585 19.912C29.5998 20.2533 30.0052 20.5627 30.4745 20.84C30.9438 21.096 31.4772 21.3093 32.0745 21.48C32.6718 21.6507 33.3332 21.736 34.0585 21.736C34.7838 21.736 35.4345 21.6507 36.0105 21.48C36.6078 21.3093 37.1412 21.096 37.6105 20.84C38.0798 20.5627 38.4745 20.2533 38.7945 19.912C39.1358 19.5493 39.4025 19.176 39.5945 18.792C39.8078 18.408 39.9572 17.9813 40.0425 17.512C40.1492 17.0213 40.2025 16.456 40.2025 15.816V6.888H42.6985ZM58.8033 20.84L59.6673 24.392C58.7499 24.7333 57.8433 25.0107 56.9473 25.224C56.0513 25.4373 55.1766 25.544 54.3233 25.544C53.3633 25.544 52.5313 25.3947 51.8273 25.096C51.1233 24.8187 50.5473 24.392 50.0993 23.816C49.6726 23.24 49.3526 22.5253 49.1393 21.672C48.9259 20.7973 48.8193 19.784 48.8193 18.632V10.504H45.3633V7.112C46.1739 6.856 46.8673 6.536 47.4433 6.152C48.0193 5.74667 48.4886 5.27733 48.8513 4.744C49.2139 4.21067 49.4699 3.592 49.6193 2.888C49.7899 2.16267 49.8753 1.34133 49.8753 0.424H52.4033C52.4033 1.384 52.3393 2.216 52.2113 2.92C52.0833 3.60266 51.8913 4.2 51.6353 4.712C51.3793 5.224 51.0699 5.65067 50.7073 5.992C50.3659 6.33333 49.9606 6.632 49.4913 6.888H58.8673V10.504H51.3153V18.024C51.3153 18.7707 51.3686 19.4 51.4753 19.912C51.6033 20.4027 51.7953 20.7867 52.0513 21.064C52.3073 21.3413 52.6166 21.544 52.9792 21.672C53.3633 21.7787 53.8113 21.8213 54.3233 21.8C54.9633 21.7787 55.6459 21.6933 56.3713 21.544C57.1179 21.3733 57.9286 21.1387 58.8033 20.84ZM71.5543 10.088C70.4449 10.088 69.3996 10.2373 68.4183 10.536C67.4369 10.8133 66.5729 11.208 65.8263 11.72C65.1009 12.232 64.5249 12.8507 64.0983 13.576C63.6716 14.28 63.4583 15.0693 63.4583 15.944C63.4583 16.7973 63.6716 17.5867 64.0983 18.312C64.5249 19.016 65.1009 19.6347 65.8263 20.168C66.5516 20.68 67.4049 21.0853 68.3863 21.384C69.3889 21.6613 70.4449 21.8 71.5543 21.8C72.6636 21.8 73.7089 21.6613 74.6903 21.384C75.6716 21.0853 76.5249 20.68 77.2503 20.168C77.9969 19.656 78.5836 19.048 79.0103 18.344C79.4369 17.6187 79.6503 16.8187 79.6503 15.944C79.6503 15.0907 79.4369 14.312 79.0103 13.608C78.5836 12.8827 78.0076 12.264 77.2823 11.752C76.5569 11.24 75.7036 10.8347 74.7223 10.536C73.7409 10.2373 72.6849 10.088 71.5543 10.088ZM71.5543 25.512C70.0396 25.512 68.6423 25.2667 67.3623 24.776C66.0823 24.2853 64.9729 23.6133 64.0343 22.76C63.0956 21.8853 62.3596 20.872 61.8263 19.72C61.3143 18.5467 61.0583 17.288 61.0583 15.944C61.0583 14.6 61.3143 13.352 61.8263 12.2C62.3596 11.0267 63.0956 10.0133 64.0343 9.16C64.9729 8.28533 66.0823 7.60267 67.3623 7.112C68.6423 6.62133 70.0396 6.376 71.5543 6.376C73.0689 6.376 74.4663 6.62133 75.7463 7.112C77.0263 7.60267 78.1356 8.28533 79.0743 9.16C80.0129 10.0133 80.7383 11.0267 81.2503 12.2C81.7836 13.352 82.0503 14.6 82.0503 15.944C82.0503 17.288 81.7836 18.5467 81.2503 19.72C80.7383 20.872 80.0129 21.8853 79.0743 22.76C78.1356 23.6133 77.0263 24.2853 75.7463 24.776C74.4663 25.2667 73.0689 25.512 71.5543 25.512ZM98.2275 21.704C99.3795 21.704 100.457 21.5973 101.46 21.384C102.484 21.1493 103.412 20.8613 104.244 20.52C105.076 20.1787 105.812 19.8267 106.452 19.464C107.092 19.08 107.625 18.7387 108.052 18.44L110.132 21.16C109.662 21.5867 109.054 22.0667 108.308 22.6C107.561 23.112 106.686 23.6027 105.684 24.072C104.681 24.52 103.561 24.8933 102.324 25.192C101.108 25.4907 99.7742 25.64 98.3235 25.64C96.4462 25.64 94.6648 25.3413 92.9795 24.744C91.3155 24.1253 89.8542 23.2613 88.5955 22.152C87.3368 21.0427 86.3448 19.7307 85.6195 18.216C84.8942 16.68 84.5315 15.0053 84.5315 13.192C84.5315 11.2933 84.9048 9.576 85.6515 8.04C86.4195 6.504 87.4328 5.192 88.6915 4.104C89.9715 3.016 91.4328 2.17333 93.0755 1.576C94.7182 0.978665 96.4248 0.679998 98.1955 0.679998C99.7742 0.679998 101.193 0.893332 102.452 1.32C103.732 1.74667 104.841 2.25867 105.78 2.856C106.718 3.432 107.497 4.02933 108.116 4.648C108.756 5.26667 109.225 5.768 109.524 6.152L107.092 8.552C106.516 7.89067 105.876 7.31467 105.172 6.824C104.468 6.33333 103.71 5.928 102.9 5.608C102.11 5.288 101.3 5.04267 100.468 4.872C99.6355 4.70133 98.8035 4.616 97.9715 4.616C96.5422 4.616 95.1662 4.82933 93.8435 5.256C92.5422 5.68267 91.3795 6.26933 90.3555 7.016C89.3528 7.76267 88.5422 8.65867 87.9235 9.704C87.3262 10.7493 87.0275 11.912 87.0275 13.192C87.0275 14.3867 87.3155 15.5067 87.8915 16.552C88.4888 17.5973 89.2888 18.504 90.2915 19.272C91.2942 20.0187 92.4782 20.616 93.8435 21.064C95.2088 21.4907 96.6702 21.704 98.2275 21.704ZM113.046 0.424H115.51V9.416C116.299 8.41333 117.28 7.656 118.454 7.144C119.648 6.632 120.896 6.376 122.198 6.376C123.2 6.376 124.203 6.536 125.206 6.856C126.208 7.176 127.104 7.66667 127.894 8.328C128.683 8.98933 129.323 9.82133 129.814 10.824C130.304 11.8267 130.55 13.0107 130.55 14.376V25H128.054V15.496C128.054 14.9627 128.011 14.5147 127.926 14.152C127.84 13.768 127.712 13.4267 127.542 13.128C127.286 12.5307 126.923 12.04 126.454 11.656C126.006 11.272 125.515 10.9733 124.982 10.76C124.47 10.5253 123.926 10.3653 123.35 10.28C122.795 10.1733 122.283 10.12 121.814 10.12C121.323 10.12 120.79 10.1733 120.214 10.28C119.659 10.3653 119.115 10.5253 118.582 10.76C118.048 10.9733 117.558 11.2827 117.11 11.688C116.662 12.072 116.299 12.5627 116.022 13.16C115.872 13.4373 115.744 13.768 115.638 14.152C115.552 14.536 115.51 14.984 115.51 15.496V25H113.046V0.424ZM143.992 10.088C142.882 10.088 141.837 10.2373 140.856 10.536C139.874 10.8133 139.01 11.208 138.264 11.72C137.538 12.232 136.962 12.8507 136.536 13.576C136.109 14.28 135.896 15.0693 135.896 15.944C135.896 16.7973 136.109 17.5867 136.536 18.312C136.962 19.016 137.538 19.6347 138.264 20.168C138.989 20.68 139.842 21.0853 140.824 21.384C141.826 21.6613 142.882 21.8 143.992 21.8C145.101 21.8 146.146 21.6613 147.128 21.384C148.109 21.0853 148.962 20.68 149.688 20.168C150.434 19.656 151.021 19.048 151.448 18.344C151.874 17.6187 152.088 16.8187 152.088 15.944C152.088 15.0907 151.874 14.312 151.448 13.608C151.021 12.8827 150.445 12.264 149.72 11.752C148.994 11.24 148.141 10.8347 147.16 10.536C146.178 10.2373 145.122 10.088 143.992 10.088ZM143.992 25.512C142.477 25.512 141.08 25.2667 139.8 24.776C138.52 24.2853 137.41 23.6133 136.472 22.76C135.533 21.8853 134.797 20.872 134.264 19.72C133.752 18.5467 133.496 17.288 133.496 15.944C133.496 14.6 133.752 13.352 134.264 12.2C134.797 11.0267 135.533 10.0133 136.472 9.16C137.41 8.28533 138.52 7.60267 139.8 7.112C141.08 6.62133 142.477 6.376 143.992 6.376C145.506 6.376 146.904 6.62133 148.184 7.112C149.464 7.60267 150.573 8.28533 151.512 9.16C152.45 10.0133 153.176 11.0267 153.688 12.2C154.221 13.352 154.488 14.6 154.488 15.944C154.488 17.288 154.221 18.5467 153.688 19.72C153.176 20.872 152.45 21.8853 151.512 22.76C150.573 23.6133 149.464 24.2853 148.184 24.776C146.904 25.2667 145.506 25.512 143.992 25.512ZM167.273 10.088C166.164 10.088 165.118 10.2373 164.137 10.536C163.156 10.8133 162.292 11.208 161.545 11.72C160.82 12.232 160.244 12.8507 159.817 13.576C159.39 14.28 159.177 15.0693 159.177 15.944C159.177 16.7973 159.39 17.5867 159.817 18.312C160.244 19.016 160.82 19.6347 161.545 20.168C162.27 20.68 163.124 21.0853 164.105 21.384C165.108 21.6613 166.164 21.8 167.273 21.8C168.382 21.8 169.428 21.6613 170.409 21.384C171.39 21.0853 172.244 20.68 172.969 20.168C173.716 19.656 174.302 19.048 174.729 18.344C175.156 17.6187 175.369 16.8187 175.369 15.944C175.369 15.0907 175.156 14.312 174.729 13.608C174.302 12.8827 173.726 12.264 173.001 11.752C172.276 11.24 171.422 10.8347 170.441 10.536C169.46 10.2373 168.404 10.088 167.273 10.088ZM167.273 25.512C165.758 25.512 164.361 25.2667 163.081 24.776C161.801 24.2853 160.692 23.6133 159.753 22.76C158.814 21.8853 158.078 20.872 157.545 19.72C157.033 18.5467 156.777 17.288 156.777 15.944C156.777 14.6 157.033 13.352 157.545 12.2C158.078 11.0267 158.814 10.0133 159.753 9.16C160.692 8.28533 161.801 7.60267 163.081 7.112C164.361 6.62133 165.758 6.376 167.273 6.376C168.788 6.376 170.185 6.62133 171.465 7.112C172.745 7.60267 173.854 8.28533 174.793 9.16C175.732 10.0133 176.457 11.0267 176.969 12.2C177.502 13.352 177.769 14.6 177.769 15.944C177.769 17.288 177.502 18.5467 176.969 19.72C176.457 20.872 175.732 21.8853 174.793 22.76C173.854 23.6133 172.745 24.2853 171.465 24.776C170.185 25.2667 168.788 25.512 167.273 25.512ZM194.362 8.936L192.698 11.592C192.378 11.4 192.005 11.1867 191.578 10.952C191.152 10.7173 190.693 10.5147 190.202 10.344C189.733 10.152 189.221 10.0027 188.666 9.896C188.112 9.768 187.536 9.704 186.938 9.704C185.872 9.704 184.997 9.90667 184.314 10.312C183.632 10.7173 183.29 11.2613 183.29 11.944C183.29 12.3067 183.397 12.6267 183.61 12.904C183.824 13.16 184.122 13.3947 184.506 13.608C184.912 13.8 185.402 13.9707 185.978 14.12C186.554 14.2693 187.194 14.4187 187.898 14.568C188.688 14.7173 189.509 14.8987 190.362 15.112C191.237 15.3253 192.026 15.6347 192.73 16.04C193.434 16.4453 194.01 16.968 194.458 17.608C194.928 18.248 195.152 19.0693 195.13 20.072C195.13 20.9893 194.906 21.7893 194.458 22.472C194.032 23.1547 193.466 23.72 192.762 24.168C192.08 24.616 191.29 24.9467 190.394 25.16C189.498 25.3947 188.581 25.512 187.642 25.512C186.789 25.512 185.968 25.4267 185.178 25.256C184.389 25.0853 183.653 24.872 182.97 24.616C182.309 24.3387 181.701 24.0293 181.146 23.688C180.613 23.3253 180.165 22.9627 179.802 22.6L181.594 19.88C181.893 20.1147 182.266 20.3707 182.714 20.648C183.184 20.904 183.696 21.1493 184.25 21.384C184.826 21.5973 185.445 21.7787 186.106 21.928C186.768 22.0773 187.461 22.152 188.186 22.152C188.848 22.152 189.445 22.088 189.978 21.96C190.512 21.8107 190.96 21.6187 191.322 21.384C191.685 21.1493 191.973 20.8827 192.186 20.584C192.4 20.2853 192.506 19.976 192.506 19.656C192.506 19.208 192.346 18.8453 192.026 18.568C191.728 18.2693 191.322 18.0133 190.81 17.8C190.298 17.5867 189.712 17.4053 189.05 17.256C188.389 17.1067 187.696 16.9467 186.97 16.776C186.288 16.648 185.573 16.488 184.826 16.296C184.08 16.0827 183.397 15.784 182.778 15.4C182.181 15.016 181.69 14.5253 181.306 13.928C180.922 13.3307 180.73 12.5627 180.73 11.624C180.73 10.92 180.88 10.2587 181.178 9.64C181.477 9 181.904 8.44533 182.458 7.976C183.034 7.48533 183.738 7.10133 184.57 6.824C185.402 6.52533 186.33 6.376 187.354 6.376C188.165 6.376 188.922 6.46133 189.626 6.632C190.352 6.78133 191.013 6.984 191.61 7.24C192.208 7.496 192.73 7.77333 193.178 8.072C193.648 8.37067 194.042 8.65867 194.362 8.936ZM207.542 22.152C208.14 22.152 208.748 22.12 209.366 22.056C210.006 21.9707 210.657 21.832 211.318 21.64C212.001 21.4267 212.694 21.128 213.398 20.744C214.102 20.3387 214.796 19.8373 215.478 19.24L217.174 21.64C216.406 22.4507 215.617 23.112 214.806 23.624C214.017 24.1147 213.238 24.4987 212.47 24.776C211.702 25.0533 210.934 25.2453 210.166 25.352C209.42 25.4587 208.694 25.512 207.99 25.512C206.454 25.512 205.046 25.2667 203.766 24.776C202.486 24.264 201.388 23.5813 200.47 22.728C199.553 21.8533 198.838 20.84 198.326 19.688C197.814 18.5147 197.558 17.2667 197.558 15.944C197.558 14.6 197.804 13.352 198.294 12.2C198.806 11.0267 199.521 10.0133 200.438 9.16C201.356 8.28533 202.433 7.60267 203.67 7.112C204.908 6.62133 206.262 6.376 207.734 6.376C209.27 6.376 210.646 6.632 211.862 7.144C213.1 7.63467 214.156 8.30667 215.03 9.16C215.905 9.992 216.577 10.9627 217.046 12.072C217.516 13.1813 217.75 14.3547 217.75 15.592C217.75 15.8907 217.74 16.1573 217.718 16.392C217.718 16.6053 217.686 16.8293 217.622 17.064H198.87V14.792H215.318C215.169 14.024 214.86 13.3307 214.39 12.712C213.921 12.072 213.334 11.5387 212.63 11.112C211.948 10.664 211.169 10.3227 210.294 10.088C209.441 9.85333 208.545 9.736 207.606 9.736C206.71 9.736 205.814 9.864 204.918 10.12C204.044 10.3547 203.244 10.7067 202.518 11.176C201.814 11.6453 201.217 12.2213 200.726 12.904C200.257 13.5653 199.99 14.312 199.926 15.144C199.926 15.2507 199.916 15.3787 199.894 15.528C199.894 15.656 199.894 15.7947 199.894 15.944C199.894 16.0933 199.894 16.232 199.894 16.36C199.894 16.4667 199.894 16.552 199.894 16.616C199.98 17.512 200.246 18.312 200.694 19.016C201.164 19.6987 201.74 20.2747 202.422 20.744C203.126 21.2133 203.916 21.5653 204.79 21.8C205.686 22.0347 206.604 22.152 207.542 22.152Z" fill="#FFD61E"/>
</svg>
