<svg width="32" height="32" viewBox="0 0 32 32" fill="none" xmlns="http://www.w3.org/2000/svg">
<path d="M28.9425 27.0572L21.7478 19.8625C23.207 17.9989 23.9999 15.7001 23.9998 13.3332C23.9998 7.45184 19.2145 2.6665 13.3332 2.6665C7.45184 2.6665 2.6665 7.45184 2.6665 13.3332C2.6665 19.2145 7.45184 23.9998 13.3332 23.9998C15.6999 23.9998 17.9984 23.2074 19.8625 21.7492L27.0572 28.9438C27.3074 29.1938 27.6466 29.3342 28.0003 29.3341C28.354 29.334 28.6932 29.1934 28.9432 28.9432C29.1932 28.693 29.3336 28.3537 29.3334 28C29.3333 27.6463 29.1927 27.3072 28.9425 27.0572ZM5.33317 13.3332C5.33317 8.92117 8.92117 5.33317 13.3332 5.33317C17.7452 5.33317 21.3332 8.92117 21.3332 13.3332C21.3332 17.7452 17.7452 21.3332 13.3332 21.3332C8.92117 21.3332 5.33317 17.7452 5.33317 13.3332Z" fill="#FCF5EF"/>
</svg>
